<svg preserveAspectRatio="none" width="100%" height="100%" overflow="visible" style="display: block;" viewBox="0 0 44 44" fill="none" xmlns="http://www.w3.org/2000/svg">
<g id="image 2700 [Vectorized]">
<path id="Vector" d="M21.2781 1.07882C32.8322 0.676065 42.5255 9.71532 42.9294 21.2694C43.3335 32.8234 34.2952 42.5176 22.7412 42.923C11.1855 43.3282 1.48942 34.2884 1.08534 22.7326C0.681267 11.1767 9.72222 1.48165 21.2781 1.07882Z" fill="var(--fill-0, #171717)"/>
<path id="Vector_2" d="M14.4954 32.927C11.5653 30.9089 9.56661 27.8001 8.94687 24.2967C8.33364 20.8096 9.1413 17.2222 11.1897 14.3343C13.2136 11.481 16.2814 9.54113 19.727 8.93602C23.231 8.32075 26.8352 9.14251 29.7264 11.2159C29.9702 11.3907 30.2091 11.5725 30.4427 11.761C29.932 12.3055 29.3772 12.8479 28.8507 13.3797L26.4064 15.8488L25.3635 16.9047C25.1388 17.1297 24.8034 17.4477 24.6111 17.6897C25.8938 17.328 27.2438 17.0341 28.5318 16.6787C29.0404 16.5384 29.5783 16.4269 30.0813 16.2707L25.2767 21.0331C23.9245 22.3725 22.4795 23.7624 21.1665 25.129C22.1267 24.8471 23.0851 24.5588 24.0414 24.2642C24.7802 24.0395 25.5608 23.8141 26.2908 23.5692C25.2232 24.4946 24.1097 25.5656 23.0671 26.5278L17.2992 31.8491L13.1419 35.6862C12.6016 36.1879 11.7692 36.8998 11.2865 37.4095L11.2183 37.3682C12.3251 35.9047 13.3869 34.3793 14.4954 32.927Z" fill="var(--fill-0, #F2F2F2)"/>
<path id="Vector_3" d="M21.2994 10.5362C22.3518 10.4746 23.4078 10.5542 24.439 10.773C24.1743 11.1089 23.8476 11.6054 23.5955 11.966L22.0334 14.1966L16.6255 21.9046C18.1121 21.537 19.7114 21.0573 21.199 20.6482C20.9932 20.9507 20.5891 21.4154 20.3399 21.7205L18.8055 23.5999L14.3547 29.052C14.859 28.9025 15.4436 28.7654 15.9582 28.6333L18.0162 28.1039C17.8483 28.3897 17.385 28.9895 17.1763 29.2729C16.6266 30.0117 16.0823 30.7549 15.5434 31.5017C15.2178 31.303 14.6956 30.8733 14.409 30.6217C12.1454 28.6307 10.7588 25.827 10.5504 22.8194C10.3276 19.7789 11.3255 16.7749 13.3234 14.472C15.3409 12.136 18.2181 10.7163 21.2994 10.5362Z" fill="var(--fill-0, #171717)"/>
<path id="Vector_4" d="M31.7006 12.955C31.7657 13.0084 32.025 13.3103 32.0884 13.3845C32.7973 14.217 33.4023 15.1328 33.89 16.1115C35.4481 19.2552 35.6973 22.8879 34.5836 26.215C33.4584 29.5543 31.0539 32.3103 27.8978 33.8776C24.7181 35.4634 21.0336 35.7008 17.6766 34.5361C17.4336 34.453 17.194 34.3604 16.9583 34.2586C17.4424 33.8353 17.9406 33.3611 18.4153 32.9239C19.3877 33.2086 20.1436 33.3871 21.1631 33.4563C24.2294 33.6918 27.2613 32.6816 29.5736 30.6543C31.8664 28.6507 33.2685 25.818 33.4709 22.7799C33.6413 20.3107 33.0094 17.8526 31.6692 15.7718C31.2874 15.1834 30.917 14.7298 30.4586 14.205C30.8674 13.7831 31.2814 13.3664 31.7006 12.955Z" fill="var(--fill-0, #F2F2F2)"/>
<path id="Vector_5" d="M11.2451 6.79724C11.3572 6.79561 11.4751 6.79131 11.579 6.83435C12.2071 7.09444 12.3144 7.586 12.1247 8.15458C12.357 8.09116 12.571 8.05414 12.7985 8.15104C13.2991 8.36419 13.6658 8.9827 13.4252 9.5099C13.1188 10.1817 12.4315 10.5756 11.8925 11.0439C11.7782 11.1432 11.5193 11.3811 11.3974 11.4337L11.3669 11.4177L8.88212 8.37087C9.08901 8.18296 9.39703 7.93796 9.62052 7.7635C10.1413 7.35702 10.5692 6.89642 11.2451 6.79724Z" fill="var(--fill-0, #F2F2F2)"/>
<path id="Vector_6" d="M11.9955 8.8138C12.4065 8.78032 12.7065 9.1908 12.5173 9.5497C12.431 9.71333 11.805 10.262 11.6683 10.2994C11.4438 10.0592 11.2519 9.77077 11.0172 9.52486C11.2894 9.28639 11.6676 8.94771 11.9955 8.8138Z" fill="var(--fill-0, #171717)"/>
<path id="Vector_7" d="M10.9415 7.67048C11.1236 7.66091 11.2461 7.68942 11.3633 7.84334C11.6685 8.24424 10.8376 8.76128 10.5707 8.97314C10.4021 8.75363 10.2272 8.53905 10.0461 8.32968C10.3139 8.10375 10.6284 7.80404 10.9415 7.67048Z" fill="var(--fill-0, #171717)"/>
<path id="Vector_8" d="M6.78119 20.8061L7.05129 20.7918C7.07501 21.0635 7.08369 21.3549 7.0946 21.6281C6.23409 21.641 5.21803 21.7546 4.33616 21.7888C5.18718 22.0447 6.27364 22.295 7.14905 22.5197C7.16159 22.7543 7.18239 22.996 7.19659 23.2321C6.30428 23.5673 5.41489 23.91 4.52851 24.2604C5.42278 24.2541 6.34476 24.1491 7.24061 24.1231L7.29067 24.9434C7.04852 24.9747 6.68197 24.9878 6.42955 25.0044C5.41014 25.0684 4.33208 25.1466 3.31391 25.1859C3.28731 24.7625 3.2633 24.3388 3.24185 23.9149C4.08464 23.607 4.92464 23.2914 5.76173 22.9685C4.91177 22.7315 3.99866 22.5182 3.13955 22.301C3.14124 21.9237 3.08906 21.4197 3.07561 21.0233L6.78119 20.8061Z" fill="var(--fill-0, #F2F2F2)"/>
<path id="Vector_9" d="M36.7931 24.4744L39.2088 25.1803C39.6623 25.3127 40.1627 25.4689 40.6166 25.5827C40.5283 25.8973 40.4366 26.2112 40.3421 26.524C40.0052 26.6026 39.6039 26.7322 39.2687 26.8323L37.4733 27.3747C38.2295 27.6231 39.111 27.8635 39.8817 28.0822C39.8432 28.2257 39.69 28.861 39.6122 28.9463L39.5706 28.9397C38.3339 28.5489 37.052 28.2275 35.8187 27.8291C35.8847 27.5685 35.9812 27.2323 36.066 26.9792C36.9645 26.7556 38.1734 26.3605 39.0698 26.0861C38.2574 25.8219 37.3673 25.5795 36.5419 25.3352L36.7931 24.4744Z" fill="var(--fill-0, #F2F2F2)"/>
<path id="Vector_10" d="M40.358 17.7968C40.385 17.7914 40.4278 17.7883 40.4566 17.7852C40.5262 17.8643 40.5937 18.5648 40.6134 18.7244C39.8486 19.3709 39.0876 20.022 38.3305 20.6776C38.463 20.669 38.6169 20.6521 38.7492 20.6331C39.4406 20.5338 40.1388 20.4598 40.8296 20.3589C40.8607 20.6626 40.9142 20.9479 40.9387 21.2606C40.573 21.2795 39.9487 21.3788 39.5721 21.4281L37.001 21.7622C36.9621 21.6406 36.8964 21.0444 36.8777 20.8958C37.6447 20.2084 38.4839 19.5516 39.258 18.8577C38.4233 18.9334 37.4926 19.0777 36.6547 19.1918C36.6087 18.9181 36.5756 18.5755 36.5406 18.2952C37.7564 18.1743 39.1299 17.9586 40.358 17.7968Z" fill="var(--fill-0, #F2F2F2)"/>
<path id="Vector_11" d="M35.645 8.85264C35.7432 8.93546 36.1404 9.45585 36.2302 9.57211C35.8588 9.88859 35.4121 10.2298 35.0275 10.5424C35.3528 10.9147 35.6957 11.3657 36.0025 11.7597C36.4081 11.439 36.8056 11.1071 37.2138 10.7892C37.4089 11.0257 37.6044 11.2788 37.796 11.5194C37.4333 11.8108 34.7759 13.9746 34.6913 13.9926L34.6481 13.9535C34.4689 13.7287 34.2891 13.4958 34.0977 13.2819C34.4694 12.9509 35.0035 12.5471 35.4011 12.2281C35.0791 11.8194 34.7538 11.4134 34.4253 11.0099C34.009 11.3676 33.5647 11.7035 33.1421 12.0633C32.9431 11.8467 32.7276 11.5654 32.5407 11.3322C33.2448 10.7852 33.9381 10.206 34.6382 9.65306C34.9682 9.3926 35.3083 9.09943 35.645 8.85264Z" fill="var(--fill-0, #F2F2F2)"/>
<path id="Vector_12" d="M4.86638 15.9451C5.27878 15.9268 5.74812 16.0438 5.9828 16.4141C6.39362 17.0623 6.08268 17.8426 5.93341 18.5237C6.417 18.6167 6.97142 18.7767 7.45873 18.8953C7.37782 19.2003 7.30183 19.5115 7.22406 19.8178C6.99037 19.7434 6.67333 19.6712 6.42969 19.609C5.42915 19.3807 4.35897 19.0926 3.36016 18.8378C3.49267 18.3695 3.59341 17.8822 3.71791 17.4105C3.89331 16.7458 4.10165 16.0942 4.86638 15.9451Z" fill="var(--fill-0, #F2F2F2)"/>
<path id="Vector_13" d="M4.8003 16.8894C5.77144 16.7708 5.38027 17.8113 5.24722 18.3367C5.16403 18.3213 5.07339 18.2989 4.99009 18.2802C4.74891 18.218 4.52973 18.1603 4.28446 18.1147C4.36793 17.7163 4.4303 17.1095 4.8003 16.8894Z" fill="var(--fill-0, #171717)"/>
<path id="Vector_14" d="M31.4101 6.02179C32.2128 5.91895 33.1676 6.51336 33.4387 7.27506C33.5513 7.59093 33.5326 7.87244 33.4675 8.19386C33.2092 8.10453 32.8838 7.9639 32.6259 7.86094C32.6436 7.63802 32.6371 7.38279 32.5076 7.19832C31.7264 6.08464 30.5836 7.46277 30.4152 8.29566C30.3073 8.79223 30.6436 9.22217 31.133 9.30308C31.4194 9.35043 31.6226 9.22739 31.8392 9.06549C31.6177 8.90296 31.3721 8.73995 31.1444 8.58359L31.3657 8.26057L31.5375 7.99956C31.9447 8.23862 32.5877 8.71183 32.9905 8.98866C32.6014 9.51526 32.1928 10.1322 31.8287 10.6803L31.2286 10.2648C31.286 10.1974 31.3532 10.1035 31.4082 10.0314C29.7631 10.0028 28.9626 8.35543 29.9526 7.05667C30.3737 6.5042 30.7063 6.15758 31.4101 6.02179Z" fill="var(--fill-0, #F2F2F2)"/>
<path id="Vector_15" d="M35.7352 29.1809C35.8897 29.1689 36.0453 29.1766 36.1978 29.2037C36.8526 29.3191 37.4955 29.7756 37.8981 30.3213C38.5308 31.1786 38.0979 32.3316 37.3006 32.9126C36.9281 33.1841 36.5259 33.2067 36.0749 33.1207L36.3746 32.2768C36.6432 32.2887 36.86 32.274 37.0916 32.1133C37.2664 31.9939 37.3857 31.8087 37.422 31.6001C37.5586 30.8419 36.4653 30.1879 35.8278 30.0682C35.2042 30.0064 34.7646 30.5617 34.9418 31.165C34.9829 31.304 35.0656 31.4076 35.1504 31.523C35.3122 31.3002 35.471 31.0499 35.6222 30.8189L36.2146 31.2048C35.9043 31.6581 35.5458 32.2077 35.2624 32.6728C34.7781 32.3157 34.067 31.8873 33.5443 31.5391C33.6584 31.3848 33.8279 31.113 33.92 30.9495C34.0201 30.9979 34.0992 31.0509 34.1927 31.1102C34.14 30.1636 34.7972 29.3352 35.7352 29.1809Z" fill="var(--fill-0, #F2F2F2)"/>
<path id="Vector_16" d="M5.67715 12.5451L8.3191 13.0417C8.78879 13.1293 9.32154 13.2451 9.78943 13.3125C9.63829 13.5952 9.48929 13.8791 9.34247 14.1642L8.47787 13.9621C8.29229 14.3462 8.06939 14.7199 7.87949 15.1163C7.96098 15.1963 8.04445 15.285 8.12443 15.3675L8.48834 15.7341C8.33814 16.0096 8.19045 16.2865 8.04528 16.5647C7.07004 15.5685 6.11713 14.5436 5.14861 13.5401L5.67715 12.5451Z" fill="var(--fill-0, #F2F2F2)"/>
<path id="Vector_17" d="M6.28776 13.5078C6.40388 13.5164 6.69674 13.5855 6.82117 13.6124L7.76013 13.8161C7.67284 13.9679 7.5814 14.1535 7.4989 14.3107L7.35487 14.5848C6.99449 14.2304 6.63875 13.8714 6.28776 13.5078Z" fill="var(--fill-0, #171717)"/>
<path id="Vector_18" d="M7.45302 25.5868C7.51798 25.6599 7.7501 26.3452 7.79599 26.4735C7.56214 26.6423 7.33073 26.8147 7.10185 26.9904C7.25987 27.3943 7.41331 27.8001 7.56214 28.2075C7.8303 28.1746 8.16888 28.1579 8.44319 28.1368C8.55673 28.4309 8.6749 28.7261 8.77134 29.026C7.90745 29.0546 7.02866 29.1214 6.16161 29.1586C5.70176 29.2039 5.06937 29.222 4.5997 29.2415C4.47633 28.8941 4.33028 28.5349 4.20234 28.183C4.63979 27.8551 5.0982 27.4727 5.52714 27.1283L7.45302 25.5868Z" fill="var(--fill-0, #F2F2F2)"/>
<path id="Vector_19" d="M6.50557 27.4371C6.57976 27.5382 6.77346 28.1119 6.82399 28.256C6.47771 28.2941 6.0521 28.3106 5.699 28.3336C5.57076 28.3375 5.41883 28.3527 5.28898 28.3624C5.6769 28.053 6.10755 27.738 6.50557 27.4371Z" fill="var(--fill-0, #171717)"/>
<path id="Vector_20" d="M14.9535 4.48901C15.0201 4.51535 17.4743 7.32201 17.7427 7.62607C17.4504 7.7341 17.161 7.87016 16.8764 7.99878C16.6839 7.77775 16.4957 7.5529 16.3121 7.32435L15.7558 7.56708C15.5437 7.6563 15.3331 7.74881 15.1239 7.84459C15.1572 8.13742 15.1948 8.42972 15.2368 8.72141C14.9418 8.83289 14.6474 8.97241 14.3597 9.10347C14.2225 7.74187 14.1071 6.27982 13.9391 4.9303C14.2625 4.80238 14.6309 4.63016 14.9535 4.48901Z" fill="var(--fill-0, #F2F2F2)"/>
<path id="Vector_21" d="M14.8681 5.61984C14.9487 5.66064 15.7253 6.62456 15.8341 6.76457L15.5887 6.8724C15.3995 6.95746 15.2244 7.03646 15.0301 7.11071C14.9924 6.61749 14.8981 6.1096 14.8681 5.61984Z" fill="var(--fill-0, #171717)"/>
<path id="Vector_22" d="M20.2136 3.14385L20.2501 3.14752C20.2795 3.37195 19.538 5.2652 19.5223 5.62873C19.5028 6.07922 19.7082 6.82548 19.7746 7.27863C19.469 7.3263 19.1648 7.38222 18.8622 7.44635C18.7611 6.96727 18.6839 6.35583 18.551 5.88955C18.5254 5.79988 18.2009 5.40616 18.1228 5.30864C17.7349 4.78968 17.3207 4.26834 16.9259 3.75218C17.2502 3.68019 17.5845 3.62566 17.9123 3.56864C17.9932 3.73293 18.7172 4.68591 18.858 4.86688C19.0096 4.35024 19.1484 3.82982 19.3039 3.31465C19.5828 3.2497 19.9276 3.19589 20.2136 3.14385Z" fill="var(--fill-0, #F2F2F2)"/>
<path id="Vector_23" d="M38.7079 13.1064C38.7923 13.1578 39.8639 15.7396 39.986 16.0583C39.7606 16.148 39.5679 16.2344 39.3483 16.336L38.895 15.2824C38.2956 15.5096 37.5686 15.8442 36.9681 16.1025C36.6039 16.2533 36.2425 16.4107 35.884 16.5746L35.517 15.7083C36.5163 15.2757 37.5183 14.8489 38.5225 14.4281C38.3991 14.0881 38.223 13.7024 38.0788 13.3661C38.2848 13.2893 38.504 13.1921 38.7079 13.1064Z" fill="var(--fill-0, #F2F2F2)"/>
<path id="Vector_24" d="M9.35807 29.8233C9.41391 29.8745 9.80724 30.493 9.87754 30.6017C8.97767 31.1713 8.03783 31.8154 7.1486 32.4098L7.7716 33.3528C7.61341 33.475 7.36602 33.6364 7.19618 33.7539C6.9926 33.4596 6.78835 33.1399 6.58962 32.8402C6.19035 32.2551 5.80037 31.6639 5.41979 31.0666C5.61347 30.9351 5.80935 30.8069 6.00735 30.6818C6.20165 30.9974 6.42621 31.3234 6.63235 31.6334C7.54488 31.0434 8.44578 30.4193 9.35807 29.8233Z" fill="var(--fill-0, #F2F2F2)"/>
<path id="Vector_25" d="M24.3734 3.23312C24.6791 3.28602 24.9896 3.35084 25.2975 3.40581C25.0768 4.47273 24.879 5.55457 24.6693 6.6251C25.2917 6.73976 25.9124 6.86233 26.5315 6.9928C26.4901 7.22051 26.4508 7.46346 26.3938 7.6866C25.4685 7.50123 24.5341 7.33475 23.6118 7.13997C23.664 6.91713 23.7008 6.6831 23.7465 6.45799C23.9648 5.38693 24.144 4.30135 24.3734 3.23312Z" fill="var(--fill-0, #F2F2F2)"/>
<path id="Vector_26" d="M36.889 22.6495C38.1515 22.7253 39.6019 22.8314 40.8604 22.9498C40.8349 23.2635 40.8129 23.5774 40.7949 23.8917L36.8214 23.5888C36.8291 23.3327 36.8602 22.9006 36.889 22.6495Z" fill="var(--fill-0, #F2F2F2)"/>
<path id="Vector_27" d="M28.6605 4.3253C28.9387 4.42647 29.2537 4.56405 29.5308 4.6774C29.0255 5.90603 28.5273 7.13758 28.0364 8.37194C27.7968 8.29499 27.4069 8.11673 27.1639 8.0141L28.6605 4.3253Z" fill="var(--fill-0, #F2F2F2)"/>
<path id="Vector_28" d="M18.8865 36.4199C19.9106 36.3713 20.266 38.0729 19.2195 38.3195C18.1545 38.3028 17.835 36.6137 18.8865 36.4199Z" fill="var(--fill-0, #F2F2F2)"/>
<path id="Vector_29" d="M18.8824 36.7593C19.5216 36.7211 19.6624 37.7218 19.2079 37.9597C18.5702 37.9968 18.4345 37.0337 18.8824 36.7593Z" fill="var(--fill-0, #171717)"/>
<path id="Vector_30" d="M24.9286 38.8951C25.409 38.8777 25.4544 39.3287 25.2616 39.6788C25.658 39.9803 25.438 40.4497 25.0571 40.6431C24.9796 40.6826 24.8642 40.6953 24.777 40.7086L24.1666 40.7776C24.1756 40.191 24.17 39.5897 24.1711 39.0019C24.3877 38.9542 24.7037 38.9226 24.9286 38.8951Z" fill="var(--fill-0, #F2F2F2)"/>
<path id="Vector_31" d="M24.7413 39.9255C25.1515 39.8395 25.2101 40.1876 24.8954 40.3507C24.7798 40.376 24.6683 40.3868 24.5508 40.4005C24.5448 40.2639 24.5162 40.0982 24.5602 39.9835C24.6309 39.9195 24.6243 39.9397 24.7413 39.9255Z" fill="var(--fill-0, #171717)"/>
<path id="Vector_32" d="M24.8655 39.2393C25.1167 39.2494 25.0589 39.5519 24.7295 39.6129C24.6318 39.6262 24.6444 39.6391 24.5643 39.6079C24.5192 39.5349 24.5447 39.3774 24.5499 39.2792C24.6509 39.2605 24.7628 39.2507 24.8655 39.2393Z" fill="var(--fill-0, #171717)"/>
<path id="Vector_33" d="M13.2573 38.069C13.3787 38.1062 13.6556 38.2684 13.7901 38.3348C14.1424 38.5088 14.5601 38.7282 14.9332 38.845C14.8378 38.5849 14.718 38.306 14.6123 38.0473C15.5551 38.7093 16.4528 39.1716 17.5006 39.6608C17.5695 39.6883 17.649 39.7375 17.7147 39.7749C16.8429 39.5931 16.4121 39.4453 15.597 39.1415C15.671 39.3441 15.7463 39.5461 15.8228 39.7478C14.9791 39.3368 13.9388 38.723 13.2573 38.069Z" fill="var(--fill-0, #F2F2F2)"/>
<path id="Vector_34" d="M30.7396 38.0744C30.717 38.1479 30.4912 38.3096 30.4169 38.3672C29.7339 38.906 28.9935 39.3675 28.2093 39.7437C28.2774 39.5463 28.344 39.348 28.4094 39.1495C27.8551 39.3299 27.0026 39.6894 26.4195 39.7302L26.4143 39.7128L26.5099 39.6614C27.5876 39.1731 28.4274 38.7256 29.3959 38.0548C29.2874 38.321 29.1845 38.5896 29.0872 38.8601C29.6832 38.6452 30.1816 38.3348 30.7396 38.0744Z" fill="var(--fill-0, #F2F2F2)"/>
<path id="Vector_35" d="M16.319 35.8478C16.4052 35.8581 16.6021 35.9171 16.6934 35.9425L16.6978 36.6367C16.8774 36.6725 17.1046 36.7379 17.2854 36.7858L17.2901 36.1103C17.4131 36.1363 17.5368 36.1698 17.6588 36.2012C17.6595 36.4087 17.6813 37.9083 17.6488 37.9906L17.5912 37.9863L17.2827 37.9027L17.2927 37.1396L16.6957 36.969L16.6935 37.7468L16.3223 37.6374C16.3072 37.0554 16.3164 36.4321 16.319 35.8478Z" fill="var(--fill-0, #F2F2F2)"/>
<path id="Vector_36" d="M23.9445 36.5784L23.9612 36.5776L23.9651 36.6089C23.7468 36.8706 23.5137 37.1327 23.2918 37.3938L23.9821 38.3627C23.8385 38.3724 23.6881 38.3833 23.5494 38.4192C23.3788 38.1756 23.2108 37.9302 23.0455 37.6829C22.8975 37.8052 22.8866 37.8043 22.8889 38.0005L22.8857 38.4557C22.7579 38.457 22.6253 38.4678 22.4975 38.4755C22.5084 37.8843 22.5011 37.2696 22.5022 36.6764L22.8788 36.6588L22.8803 37.3012C23.0829 37.0977 23.2879 36.841 23.4905 36.6236L23.9445 36.5784Z" fill="var(--fill-0, #F2F2F2)"/>
<path id="Vector_37" d="M25.5737 36.3157C25.619 36.3114 25.5954 36.3082 25.6431 36.3322C25.6706 36.4203 25.6562 36.5494 25.6523 36.6459C25.3741 36.6878 25.0969 36.7366 24.8211 36.7922L24.8258 37.1555C25.075 37.1192 25.3634 37.0595 25.6143 37.0137L25.6111 37.3538L24.8198 37.4864L24.825 37.9051C25.0334 37.8795 25.2665 37.8342 25.4753 37.7981L25.7 37.7558L25.7035 38.0836C25.3234 38.164 24.8342 38.236 24.4488 38.2991C24.4372 37.713 24.4464 37.1005 24.4425 36.5108L25.5737 36.3157Z" fill="var(--fill-0, #F2F2F2)"/>
<path id="Vector_38" d="M23.1548 39.0893L23.5048 39.0756C23.5074 39.6982 23.7399 40.9477 22.8184 40.9428C22.0525 40.9385 22.1552 40.3438 22.1618 39.7998L22.1614 39.1493C22.2888 39.1362 22.4111 39.1295 22.5389 39.1224C22.5402 39.4157 22.4727 40.2933 22.6259 40.5329C22.6953 40.6414 23.009 40.6646 23.0872 40.4686C23.1725 40.2546 23.0526 39.1946 23.1548 39.0893Z" fill="var(--fill-0, #F2F2F2)"/>
<path id="Vector_39" d="M21.0226 36.6564C21.5621 36.6197 21.7778 36.8317 21.9344 37.3167L21.5528 37.3111C21.4724 37.0926 21.339 36.9422 21.0853 37.0032C20.5365 37.1351 20.7429 38.2925 21.3062 38.1369C21.4259 38.1038 21.4993 37.9487 21.5382 37.84C21.5445 37.796 21.5359 37.8179 21.5715 37.7777C21.6964 37.7566 21.8036 37.7773 21.9299 37.7915C21.902 37.8929 21.877 37.9816 21.8371 38.0808C21.7062 38.4609 21.1756 38.601 20.8438 38.4001C20.171 37.9928 20.2037 36.8779 21.0226 36.6564Z" fill="var(--fill-0, #F2F2F2)"/>
<path id="Vector_40" d="M18.8646 38.9151C19.4712 38.844 19.7253 39.1125 19.8922 39.6559L19.5223 39.6075C19.3575 39.1808 18.9181 39.0784 18.7643 39.5297C18.6392 39.8967 18.9459 40.6618 19.43 40.3212C19.4864 40.2222 19.4933 40.1822 19.524 40.0729C19.6447 40.0845 19.7707 40.1047 19.8913 40.1216C19.8406 40.3214 19.7531 40.6031 19.5455 40.6888C18.5403 41.1045 17.8061 39.3834 18.8646 38.9151Z" fill="var(--fill-0, #F2F2F2)"/>
<path id="Vector_41" d="M27.6281 35.773C27.6404 35.773 27.6305 35.7719 27.669 35.7837C27.649 35.8518 27.5048 36.138 27.4694 36.2083C27.0958 36.9482 27.0863 36.943 27.0934 37.7523L26.717 37.8368C26.7108 37.5964 26.7144 37.3375 26.7138 37.096L26.5995 36.9185L26.1088 36.1939L26.5221 36.0985C26.6381 36.2951 26.7574 36.4895 26.8798 36.6822C27.0025 36.4212 27.1235 36.1591 27.2423 35.8963C27.3647 35.8621 27.5053 35.8127 27.6281 35.773Z" fill="var(--fill-0, #F2F2F2)"/>
<path id="Vector_42" d="M20.4657 39.0807C20.582 39.0831 20.7332 39.099 20.8516 39.1084C20.8493 39.5916 20.857 40.0823 20.8607 40.5659L21.6019 40.5896L21.5963 40.9041C21.5325 40.9552 20.6155 40.8809 20.4617 40.8719L20.4657 39.0807Z" fill="var(--fill-0, #F2F2F2)"/>
<path id="Vector_43" d="M10.999 37.6737L11.2178 37.3682L11.286 37.4095C11.1812 37.5192 11.1158 37.5764 10.999 37.6737Z" fill="var(--fill-0, #F2F2F2)"/>
<path id="Vector_44" d="M39.0236 39.2616C39.1137 39.0143 39.2037 38.6781 39.2817 38.419C39.2969 38.4076 39.3124 38.396 39.3276 38.3844C39.4211 38.3782 39.4273 38.3612 39.4916 38.4003C39.5208 38.5615 39.5277 39.3508 39.4535 39.4969L39.4159 39.5061C39.3386 39.4174 39.3674 38.9735 39.3665 38.8169C39.367 38.7477 39.3799 38.7709 39.3491 38.7254C39.2421 38.8648 39.2022 39.325 39.037 39.507H39.0035C38.8958 39.3721 38.7506 38.8158 38.6831 38.6149C38.6655 38.8947 38.7134 39.227 38.6728 39.4767C38.6212 39.5081 38.6483 39.502 38.589 39.496C38.5181 39.3587 38.5465 38.5765 38.5476 38.3763C38.6298 38.373 38.6472 38.3711 38.7269 38.3859C38.8198 38.4757 38.9753 39.0923 39.0236 39.2616Z" fill="var(--fill-0, #171717)"/>
<path id="Vector_45" d="M37.9303 38.5176L38.0701 38.5183C38.0676 38.6998 38.1007 39.3776 38.0418 39.4947L37.9672 39.505C37.906 39.394 37.9294 38.6929 37.9303 38.5176Z" fill="var(--fill-0, #171717)"/>
<path id="Vector_46" d="M37.9307 38.5176C37.8194 38.5228 37.7169 38.5462 37.6325 38.4925C37.6112 38.416 37.6061 38.4495 37.6346 38.3872C37.7842 38.358 38.2057 38.3797 38.3677 38.3868C38.4137 38.4282 38.3973 38.4029 38.4053 38.4716C38.3376 38.5357 38.2936 38.5262 38.1958 38.5232C38.1541 38.5219 38.1122 38.5202 38.0705 38.5183L37.9307 38.5176Z" fill="var(--fill-0, #171717)"/>
</g>
</svg>
